<?xml version="1.0" encoding="UTF-8" standalone="no" ?>
<!DOCTYPE svg PUBLIC "-//W3C//DTD SVG 1.1//EN" "http://www.w3.org/Graphics/SVG/1.1/DTD/svg11.dtd">
<svg xmlns="http://www.w3.org/2000/svg" xmlns:xlink="http://www.w3.org/1999/xlink" version="1.1" width="640" height="640" viewBox="0 0 640 640" xml:space="preserve">
<desc>Created with Fabric.js 5.3.0</desc>
<defs>
</defs>
<g transform="matrix(8.3601330329 0 0 8.3601330329 320 320)" id="mTN2LSLK6mUNHrYeXvXNS"  >
<path style="stroke: none; stroke-width: 1; stroke-dasharray: none; stroke-linecap: butt; stroke-dashoffset: 0; stroke-linejoin: miter; stroke-miterlimit: 4; fill: rgb(0,122,255); fill-rule: nonzero; opacity: 1;"  transform=" translate(-9.09e-8, 0)" d="M 28.45 -25.558 L -28.45 -25.558 C -33.521 -25.558 -37.647 -21.432 -37.647 -16.361 L -37.647 16.361 C -37.647 21.432000000000002 -33.521 25.558 -28.45 25.558 L 28.45 25.558 C 33.521 25.558 37.647 21.432 37.647 16.361 L 37.647 -16.359999999999996 C 37.647999999999996 -21.431999999999995 33.522 -25.557999999999996 28.45 -25.557999999999996 z M 23.956 -19.558 L 0 -4.1240000000000006 L -23.956 -19.558 z M 28.45 19.559 L -28.45 19.559 C -30.213 19.559 -31.647 18.124000000000002 -31.647 16.362000000000002 L -31.647 -16.189999999999998 L -1.850999999999999 2.9700000000000024 C -1.810999999999999 2.9950000000000023 -1.7679999999999991 3.0120000000000022 -1.726999999999999 3.0350000000000024 C -1.683999999999999 3.0590000000000024 -1.639999999999999 3.0820000000000025 -1.595999999999999 3.1040000000000023 C -1.3649999999999989 3.2230000000000025 -1.126999999999999 3.319000000000002 -0.883999999999999 3.3820000000000023 C -0.858999999999999 3.3890000000000025 -0.833999999999999 3.392000000000002 -0.808999999999999 3.3980000000000024 C -0.541999999999999 3.4610000000000025 -0.271999999999999 3.500000000000002 -0.0019999999999990026 3.500000000000002 C -0.0009999999999990026 3.500000000000002 9.97465998686664e-16 3.500000000000002 9.97465998686664e-16 3.500000000000002 C 0.0020000000000009975 3.500000000000002 0.0030000000000009975 3.500000000000002 0.0040000000000009975 3.500000000000002 C 0.274000000000001 3.500000000000002 0.544000000000001 3.4620000000000024 0.811000000000001 3.3980000000000024 C 0.8360000000000011 3.3920000000000026 0.8610000000000011 3.3890000000000025 0.886000000000001 3.3820000000000023 C 1.129000000000001 3.319000000000002 1.366000000000001 3.2230000000000025 1.598000000000001 3.1040000000000023 C 1.642000000000001 3.0820000000000025 1.686000000000001 3.0590000000000024 1.729000000000001 3.0350000000000024 C 1.770000000000001 3.0120000000000022 1.813000000000001 2.9950000000000023 1.853000000000001 2.9700000000000024 L 31.649 -16.189999999999998 L 31.649 16.361000000000004 C 31.648 18.124000000000002 30.213 19.559000000000005 28.450000000000003 19.559000000000005 z" stroke-linecap="round" />
</g>
</svg>