<svg width="612" height="182" viewBox="0 0 612 182" fill="none" xmlns="http://www.w3.org/2000/svg">
<rect x="1.5" y="1.5" width="609" height="179" rx="18.5" fill="white" stroke="#007AFF" stroke-width="3"/>
<path d="M210.739 45.0945C210.478 44.2758 210.128 43.5426 209.687 42.8949C209.255 42.2382 208.738 41.6804 208.135 41.2216C207.532 40.7538 206.844 40.3984 206.07 40.1555C205.306 39.9126 204.464 39.7912 203.547 39.7912C201.991 39.7912 200.587 40.1915 199.337 40.9922C198.086 41.7929 197.097 42.9669 196.368 44.5142C195.648 46.0526 195.288 47.9373 195.288 50.1683C195.288 52.4084 195.653 54.3021 196.381 55.8494C197.11 57.3968 198.109 58.5708 199.377 59.3714C200.646 60.1721 202.089 60.5724 203.709 60.5724C205.211 60.5724 206.52 60.2666 207.636 59.6548C208.76 59.0431 209.628 58.1795 210.24 57.0639C210.861 55.9394 211.171 54.617 211.171 53.0966L212.251 53.299H204.343V49.858H215.206V53.0021C215.206 55.3232 214.711 57.3383 213.722 59.0476C212.741 60.7479 211.383 62.0613 209.646 62.9879C207.919 63.9145 205.94 64.3778 203.709 64.3778C201.208 64.3778 199.013 63.8021 197.124 62.6506C195.243 61.4991 193.777 59.8662 192.724 57.7521C191.672 55.629 191.146 53.1101 191.146 50.1953C191.146 47.9912 191.451 46.0121 192.063 44.2578C192.675 42.5036 193.534 41.0147 194.641 39.7912C195.756 38.5587 197.065 37.6186 198.567 36.9709C200.079 36.3142 201.73 35.9858 203.52 35.9858C205.013 35.9858 206.403 36.2062 207.69 36.647C208.985 37.0878 210.137 37.7131 211.144 38.5227C212.161 39.3324 213.002 40.295 213.668 41.4105C214.333 42.517 214.783 43.745 215.017 45.0945H210.739ZM220.499 64V36.3636H237.826V39.9531H224.669V48.3736H236.922V51.9496H224.669V60.4105H237.988V64H220.499ZM242.033 39.9531V36.3636H263.421V39.9531H254.798V64H250.642V39.9531H242.033ZM282.374 36.3636V64H278.204V36.3636H282.374ZM287.083 39.9531V36.3636H308.472V39.9531H299.849V64H295.693V39.9531H287.083ZM347.261 50.1818C347.261 53.1326 346.722 55.6695 345.642 57.7926C344.563 59.9067 343.083 61.535 341.202 62.6776C339.331 63.8111 337.204 64.3778 334.82 64.3778C332.427 64.3778 330.29 63.8111 328.41 62.6776C326.539 61.535 325.063 59.9022 323.984 57.7791C322.904 55.656 322.364 53.1236 322.364 50.1818C322.364 47.2311 322.904 44.6986 323.984 42.5845C325.063 40.4614 326.539 38.8331 328.41 37.6996C330.29 36.5571 332.427 35.9858 334.82 35.9858C337.204 35.9858 339.331 36.5571 341.202 37.6996C343.083 38.8331 344.563 40.4614 345.642 42.5845C346.722 44.6986 347.261 47.2311 347.261 50.1818ZM343.132 50.1818C343.132 47.9328 342.768 46.0391 342.039 44.5007C341.319 42.9534 340.33 41.7839 339.07 40.9922C337.82 40.1915 336.403 39.7912 334.82 39.7912C333.227 39.7912 331.806 40.1915 330.555 40.9922C329.305 41.7839 328.315 42.9534 327.587 44.5007C326.867 46.0391 326.507 47.9328 326.507 50.1818C326.507 52.4309 326.867 54.3291 327.587 55.8764C328.315 57.4148 329.305 58.5843 330.555 59.3849C331.806 60.1766 333.227 60.5724 334.82 60.5724C336.403 60.5724 337.82 60.1766 339.07 59.3849C340.33 58.5843 341.319 57.4148 342.039 55.8764C342.768 54.3291 343.132 52.4309 343.132 50.1818ZM374.766 36.3636V64H370.934L356.886 43.7315H356.63V64H352.46V36.3636H356.319L370.381 56.6591H370.637V36.3636H374.766Z" fill="#007AFF"/>
<path d="M224.773 95.3182C224.394 94.0909 223.871 92.9924 223.205 92.0227C222.553 91.0379 221.765 90.197 220.841 89.5C219.932 88.803 218.886 88.2803 217.705 87.9318C216.523 87.5682 215.235 87.3864 213.841 87.3864C211.341 87.3864 209.114 88.0152 207.159 89.2727C205.205 90.5303 203.667 92.3788 202.545 94.8182C201.439 97.2424 200.886 100.197 200.886 103.682C200.886 107.197 201.439 110.174 202.545 112.614C203.652 115.053 205.189 116.909 207.159 118.182C209.129 119.439 211.417 120.068 214.023 120.068C216.386 120.068 218.432 119.614 220.159 118.705C221.902 117.795 223.242 116.508 224.182 114.841C225.121 113.159 225.591 111.189 225.591 108.932L227.5 109.227H214.864V102.636H233.75V108.227C233.75 112.212 232.902 115.659 231.205 118.568C229.508 121.477 227.174 123.72 224.205 125.295C221.235 126.856 217.826 127.636 213.977 127.636C209.689 127.636 205.924 126.674 202.682 124.75C199.455 122.811 196.932 120.061 195.114 116.5C193.311 112.924 192.409 108.682 192.409 103.773C192.409 100.015 192.939 96.6591 194 93.7045C195.076 90.75 196.576 88.2424 198.5 86.1818C200.424 84.1061 202.682 82.5303 205.273 81.4545C207.864 80.3636 210.682 79.8182 213.727 79.8182C216.303 79.8182 218.705 80.197 220.932 80.9545C223.159 81.697 225.136 82.7576 226.864 84.1364C228.606 85.5152 230.038 87.1515 231.159 89.0455C232.28 90.9394 233.015 93.0303 233.364 95.3182H224.773ZM256.767 127.682C253.358 127.682 250.403 126.932 247.903 125.432C245.403 123.932 243.464 121.833 242.085 119.136C240.722 116.439 240.04 113.288 240.04 109.682C240.04 106.076 240.722 102.917 242.085 100.205C243.464 97.4924 245.403 95.3864 247.903 93.8864C250.403 92.3864 253.358 91.6364 256.767 91.6364C260.176 91.6364 263.131 92.3864 265.631 93.8864C268.131 95.3864 270.063 97.4924 271.426 100.205C272.805 102.917 273.494 106.076 273.494 109.682C273.494 113.288 272.805 116.439 271.426 119.136C270.063 121.833 268.131 123.932 265.631 125.432C263.131 126.932 260.176 127.682 256.767 127.682ZM256.812 121.091C258.661 121.091 260.206 120.583 261.449 119.568C262.691 118.538 263.616 117.159 264.222 115.432C264.843 113.705 265.153 111.78 265.153 109.659C265.153 107.523 264.843 105.591 264.222 103.864C263.616 102.121 262.691 100.735 261.449 99.7045C260.206 98.6742 258.661 98.1591 256.812 98.1591C254.919 98.1591 253.343 98.6742 252.085 99.7045C250.843 100.735 249.911 102.121 249.29 103.864C248.684 105.591 248.381 107.523 248.381 109.659C248.381 111.78 248.684 113.705 249.29 115.432C249.911 117.159 250.843 118.538 252.085 119.568C253.343 120.583 254.919 121.091 256.812 121.091ZM295.705 127.682C292.295 127.682 289.341 126.932 286.841 125.432C284.341 123.932 282.402 121.833 281.023 119.136C279.659 116.439 278.977 113.288 278.977 109.682C278.977 106.076 279.659 102.917 281.023 100.205C282.402 97.4924 284.341 95.3864 286.841 93.8864C289.341 92.3864 292.295 91.6364 295.705 91.6364C299.114 91.6364 302.068 92.3864 304.568 93.8864C307.068 95.3864 309 97.4924 310.364 100.205C311.742 102.917 312.432 106.076 312.432 109.682C312.432 113.288 311.742 116.439 310.364 119.136C309 121.833 307.068 123.932 304.568 125.432C302.068 126.932 299.114 127.682 295.705 127.682ZM295.75 121.091C297.598 121.091 299.144 120.583 300.386 119.568C301.629 118.538 302.553 117.159 303.159 115.432C303.78 113.705 304.091 111.78 304.091 109.659C304.091 107.523 303.78 105.591 303.159 103.864C302.553 102.121 301.629 100.735 300.386 99.7045C299.144 98.6742 297.598 98.1591 295.75 98.1591C293.856 98.1591 292.28 98.6742 291.023 99.7045C289.78 100.735 288.848 102.121 288.227 103.864C287.621 105.591 287.318 107.523 287.318 109.659C287.318 111.78 287.621 113.705 288.227 115.432C288.848 117.159 289.78 118.538 291.023 119.568C292.28 120.583 293.856 121.091 295.75 121.091ZM334.597 140.818C331.642 140.818 329.104 140.417 326.983 139.614C324.862 138.826 323.157 137.765 321.869 136.432C320.581 135.098 319.688 133.621 319.188 132L326.597 130.205C326.93 130.886 327.415 131.561 328.051 132.227C328.688 132.909 329.544 133.47 330.619 133.909C331.71 134.364 333.081 134.591 334.733 134.591C337.066 134.591 338.998 134.023 340.528 132.886C342.059 131.765 342.824 129.917 342.824 127.341V120.727H342.415C341.991 121.576 341.369 122.447 340.551 123.341C339.748 124.235 338.68 124.985 337.347 125.591C336.028 126.197 334.369 126.5 332.369 126.5C329.688 126.5 327.256 125.871 325.074 124.614C322.907 123.341 321.18 121.447 319.892 118.932C318.619 116.402 317.983 113.235 317.983 109.432C317.983 105.598 318.619 102.364 319.892 99.7273C321.18 97.0758 322.915 95.0682 325.097 93.7045C327.278 92.3258 329.71 91.6364 332.392 91.6364C334.438 91.6364 336.119 91.9848 337.438 92.6818C338.771 93.3636 339.831 94.1894 340.619 95.1591C341.407 96.1136 342.006 97.0152 342.415 97.8636H342.869V92.0909H350.983V127.568C350.983 130.553 350.271 133.023 348.847 134.977C347.422 136.932 345.475 138.394 343.006 139.364C340.536 140.333 337.733 140.818 334.597 140.818ZM334.665 120.045C336.407 120.045 337.892 119.621 339.119 118.773C340.347 117.924 341.278 116.705 341.915 115.114C342.551 113.523 342.869 111.614 342.869 109.386C342.869 107.189 342.551 105.265 341.915 103.614C341.294 101.962 340.369 100.682 339.142 99.7727C337.93 98.8485 336.438 98.3864 334.665 98.3864C332.831 98.3864 331.301 98.8636 330.074 99.8182C328.847 100.773 327.922 102.083 327.301 103.75C326.68 105.402 326.369 107.28 326.369 109.386C326.369 111.523 326.68 113.394 327.301 115C327.938 116.591 328.869 117.833 330.097 118.727C331.339 119.606 332.862 120.045 334.665 120.045ZM367.642 80.4545V127H359.415V80.4545H367.642ZM391.557 127.682C388.057 127.682 385.034 126.955 382.489 125.5C379.958 124.03 378.011 121.955 376.648 119.273C375.284 116.576 374.602 113.402 374.602 109.75C374.602 106.159 375.284 103.008 376.648 100.295C378.027 97.5682 379.951 95.447 382.42 93.9318C384.89 92.4015 387.792 91.6364 391.125 91.6364C393.277 91.6364 395.307 91.9848 397.216 92.6818C399.14 93.3636 400.837 94.4242 402.307 95.8636C403.792 97.303 404.958 99.1364 405.807 101.364C406.655 103.576 407.08 106.212 407.08 109.273V111.795H378.466V106.25H399.193C399.178 104.674 398.837 103.273 398.17 102.045C397.504 100.803 396.572 99.8258 395.375 99.1136C394.193 98.4015 392.814 98.0455 391.239 98.0455C389.557 98.0455 388.08 98.4545 386.807 99.2727C385.534 100.076 384.542 101.136 383.83 102.455C383.133 103.758 382.777 105.189 382.761 106.75V111.591C382.761 113.621 383.133 115.364 383.875 116.818C384.617 118.258 385.655 119.364 386.989 120.136C388.322 120.894 389.883 121.273 391.67 121.273C392.867 121.273 393.951 121.106 394.92 120.773C395.89 120.424 396.731 119.917 397.443 119.25C398.155 118.583 398.693 117.758 399.057 116.773L406.739 117.636C406.254 119.667 405.33 121.439 403.966 122.955C402.617 124.455 400.89 125.621 398.784 126.455C396.678 127.273 394.269 127.682 391.557 127.682ZM430.278 127V80.4545H447.733C451.309 80.4545 454.309 81.1212 456.733 82.4545C459.172 83.7879 461.013 85.6212 462.256 87.9545C463.513 90.2727 464.142 92.9091 464.142 95.8636C464.142 98.8485 463.513 101.5 462.256 103.818C460.998 106.136 459.142 107.962 456.688 109.295C454.233 110.614 451.21 111.273 447.619 111.273H436.051V104.341H446.483C448.574 104.341 450.286 103.977 451.619 103.25C452.953 102.523 453.938 101.523 454.574 100.25C455.225 98.9773 455.551 97.5152 455.551 95.8636C455.551 94.2121 455.225 92.7576 454.574 91.5C453.938 90.2424 452.945 89.2652 451.597 88.5682C450.263 87.8561 448.544 87.5 446.438 87.5H438.71V127H430.278ZM479.33 80.4545V127H471.102V80.4545H479.33ZM497.835 127.705C495.623 127.705 493.631 127.311 491.858 126.523C490.1 125.72 488.706 124.538 487.676 122.977C486.661 121.417 486.153 119.492 486.153 117.205C486.153 115.235 486.517 113.606 487.244 112.318C487.972 111.03 488.964 110 490.222 109.227C491.479 108.455 492.896 107.871 494.472 107.477C496.063 107.068 497.706 106.773 499.403 106.591C501.449 106.379 503.108 106.189 504.381 106.023C505.653 105.841 506.578 105.568 507.153 105.205C507.744 104.826 508.04 104.242 508.04 103.455V103.318C508.04 101.606 507.532 100.28 506.517 99.3409C505.502 98.4015 504.04 97.9318 502.131 97.9318C500.116 97.9318 498.517 98.3712 497.335 99.25C496.169 100.129 495.381 101.167 494.972 102.364L487.29 101.273C487.896 99.1515 488.896 97.3788 490.29 95.9545C491.684 94.5151 493.388 93.4394 495.403 92.7273C497.419 92 499.646 91.6364 502.085 91.6364C503.767 91.6364 505.441 91.8333 507.108 92.2273C508.775 92.6212 510.297 93.2727 511.676 94.1818C513.055 95.0758 514.161 96.2955 514.994 97.8409C515.843 99.3864 516.267 101.318 516.267 103.636V127H508.358V122.205H508.085C507.585 123.174 506.881 124.083 505.972 124.932C505.078 125.765 503.949 126.439 502.585 126.955C501.237 127.455 499.653 127.705 497.835 127.705ZM499.972 121.659C501.623 121.659 503.055 121.333 504.267 120.682C505.479 120.015 506.411 119.136 507.062 118.045C507.729 116.955 508.062 115.765 508.062 114.477V110.364C507.805 110.576 507.366 110.773 506.744 110.955C506.138 111.136 505.456 111.295 504.699 111.432C503.941 111.568 503.191 111.689 502.449 111.795C501.706 111.902 501.063 111.992 500.517 112.068C499.29 112.235 498.191 112.508 497.222 112.886C496.252 113.265 495.487 113.795 494.926 114.477C494.366 115.144 494.085 116.008 494.085 117.068C494.085 118.583 494.638 119.727 495.744 120.5C496.85 121.273 498.259 121.659 499.972 121.659ZM528.403 140.091C527.282 140.091 526.244 140 525.29 139.818C524.35 139.652 523.6 139.455 523.04 139.227L524.949 132.818C526.146 133.167 527.214 133.333 528.153 133.318C529.093 133.303 529.919 133.008 530.631 132.432C531.358 131.871 531.972 130.932 532.472 129.614L533.176 127.727L520.517 92.0909H529.244L537.29 118.455H537.653L545.722 92.0909H554.472L540.494 131.227C539.843 133.076 538.979 134.659 537.903 135.977C536.828 137.311 535.509 138.326 533.949 139.023C532.403 139.735 530.555 140.091 528.403 140.091Z" fill="#007AFF"/>
<path d="M164.607 86.2602C168.71 88.5488 168.71 94.4512 164.607 96.7398L71.923 148.443C67.9237 150.674 63 147.783 63 143.203L63 39.7967C63 35.2172 67.9237 32.3258 71.923 34.5568L164.607 86.2602Z" fill="#007AFF"/>
<line x1="61.6508" y1="37.2407" x2="145.651" y2="109.241" stroke="white" stroke-width="2"/>
<line x1="60.3589" y1="144.233" x2="145.359" y2="73.2325" stroke="white" stroke-width="2"/>
</svg>
