<svg width="21861" height="6849" viewBox="0 0 21861 6849" fill="none" xmlns="http://www.w3.org/2000/svg">
<path d="M5772.52 2627.12H5266.78L5126.22 2253.04C4981.77 1868.44 4637.03 1619.99 4247.87 1619.99H3175.06C2785.98 1619.99 2441.16 1868.44 2296.63 2253.04L2156.07 2627.12H1650.42C1584.44 2627.12 1536.04 2693.12 1552.09 2761.19L1602.77 2977C1614.01 3025.02 1654.55 3058.74 1701.1 3058.74H1870.64C1757.19 3164.22 1684.12 3317.54 1684.12 3490.37V3921.99C1684.12 4066.94 1736.16 4197.78 1819.28 4299.03V4785.24C1819.28 4944.13 1940.33 5072.99 2089.59 5072.99H2359.9C2509.17 5072.99 2630.22 4944.13 2630.22 4785.24V4497.49H4792.72V4785.24C4792.72 4944.13 4913.77 5072.99 5063.03 5072.99H5333.34C5482.61 5072.99 5603.66 4944.13 5603.66 4785.24V4299.03C5686.78 4197.87 5738.81 4067.03 5738.81 3921.99V3490.37C5738.81 3317.54 5665.74 3164.22 5552.38 3058.74H5721.92C5768.46 3058.74 5809.01 3025.02 5820.25 2977L5870.93 2761.19C5886.89 2693.12 5838.49 2627.12 5772.52 2627.12ZM2798.57 2466.78C2860.15 2302.95 3009.24 2195.49 3175.06 2195.49H4247.87C4413.69 2195.49 4562.78 2302.95 4624.36 2466.78L4792.72 2914.87H2630.22L2798.57 2466.78ZM2359.9 3920.19C2197.71 3920.19 2089.59 3805.45 2089.59 3633.34C2089.59 3461.23 2197.71 3346.49 2359.9 3346.49C2522.09 3346.49 2765.37 3604.66 2765.37 3776.77C2765.37 3948.88 2522.09 3920.19 2359.9 3920.19ZM5063.03 3920.19C4900.84 3920.19 4657.56 3948.88 4657.56 3776.77C4657.56 3604.66 4900.84 3346.49 5063.03 3346.49C5225.22 3346.49 5333.34 3461.23 5333.34 3633.34C5333.34 3805.45 5225.22 3920.19 5063.03 3920.19Z" fill="#007AFF"/>
<path d="M9162.27 3124.66H8629.6C8622.5 3069.98 8607.94 3020.62 8585.92 2976.58C8563.9 2932.55 8534.78 2894.91 8498.56 2863.66C8462.34 2832.41 8419.37 2808.61 8369.65 2792.28C8320.65 2775.23 8266.32 2766.71 8206.66 2766.71C8100.83 2766.71 8009.57 2792.63 7932.87 2844.48C7856.87 2896.33 7798.28 2971.26 7757.08 3069.27C7716.6 3167.28 7696.36 3285.89 7696.36 3425.09C7696.36 3569.98 7716.96 3691.43 7758.15 3789.44C7800.05 3886.74 7858.65 3960.25 7933.93 4009.96C8009.92 4058.97 8099.77 4083.47 8203.46 4083.47C8261.7 4083.47 8314.61 4076.01 8362.2 4061.1C8410.49 4046.18 8452.75 4024.52 8488.97 3996.11C8525.9 3966.99 8556.09 3931.84 8579.53 3890.64C8603.67 3848.74 8620.37 3801.51 8629.6 3748.95L9162.27 3752.15C9153.04 3848.74 9124.98 3943.91 9078.11 4037.66C9031.94 4131.41 8968.38 4216.99 8887.41 4294.41C8806.44 4371.11 8707.72 4432.19 8591.25 4477.65C8475.48 4523.1 8342.67 4545.83 8192.81 4545.83C7995.37 4545.83 7818.52 4502.51 7662.27 4415.86C7506.73 4328.5 7383.86 4201.37 7293.66 4034.47C7203.46 3867.56 7158.36 3664.44 7158.36 3425.09C7158.36 3185.03 7204.17 2981.55 7295.79 2814.65C7387.41 2647.75 7511.35 2520.97 7667.6 2434.32C7823.85 2347.68 7998.92 2304.35 8192.81 2304.35C8324.91 2304.35 8447.07 2322.82 8559.29 2359.75C8671.5 2395.97 8770.22 2449.24 8855.45 2519.55C8940.68 2589.15 9009.92 2674.74 9063.19 2776.3C9116.46 2877.86 9149.48 2993.98 9162.27 3124.66ZM9925.32 4543.7C9820.92 4543.7 9728.23 4526.3 9647.26 4491.5C9567.01 4455.99 9503.44 4402.72 9456.57 4331.7C9410.4 4259.96 9387.32 4170.12 9387.32 4062.16C9387.32 3971.26 9403.3 3894.55 9435.26 3832.05C9467.22 3769.55 9511.26 3718.77 9567.36 3679.71C9623.47 3640.64 9688.1 3611.17 9761.26 3591.28C9834.41 3570.69 9912.53 3556.84 9995.63 3549.74C10088.7 3541.21 10163.6 3532.34 10220.4 3523.1C10277.2 3513.16 10318.4 3499.31 10344 3481.55C10370.3 3463.09 10383.4 3437.16 10383.4 3403.78V3398.46C10383.4 3343.77 10364.6 3301.51 10327 3271.68C10289.3 3241.85 10238.5 3226.94 10174.6 3226.94C10105.7 3226.94 10050.3 3241.85 10008.4 3271.68C9966.51 3301.51 9939.88 3342.7 9928.51 3395.26L9448.05 3378.22C9462.25 3278.78 9498.83 3190.01 9557.78 3111.88C9617.44 3033.05 9699.11 2971.26 9802.8 2926.51C9907.21 2881.06 10032.6 2858.33 10178.9 2858.33C10283.3 2858.33 10379.5 2870.76 10467.6 2895.62C10555.6 2919.76 10632.4 2955.28 10697.7 3002.15C10763 3048.32 10813.5 3105.13 10849 3172.61C10885.2 3240.08 10903.3 3317.14 10903.3 3403.78V4516H10413.2V4288.02H10400.5C10371.3 4343.41 10334.1 4390.29 10288.6 4428.64C10243.9 4466.99 10190.9 4495.76 10129.9 4514.93C10069.5 4534.11 10001.3 4543.7 9925.32 4543.7ZM10086.2 4202.79C10142.3 4202.79 10192.7 4191.43 10237.5 4168.7C10282.9 4145.97 10319.1 4114.72 10346.1 4074.95C10373.1 4034.47 10386.6 3987.59 10386.6 3934.32V3778.78C10371.7 3786.6 10353.6 3793.7 10332.3 3800.09C10311.7 3806.48 10289 3812.52 10264.1 3818.2C10239.2 3823.88 10213.7 3828.86 10187.4 3833.12C10161.1 3837.38 10135.9 3841.28 10111.8 3844.84C10062.7 3852.65 10020.8 3864.72 9986.04 3881.06C9951.95 3897.39 9925.67 3918.7 9907.21 3944.98C9889.45 3970.55 9880.57 4001.09 9880.57 4036.6C9880.57 4090.57 9899.75 4131.77 9938.1 4160.18C9977.17 4188.59 10026.5 4202.79 10086.2 4202.79ZM11221.8 4516V2879.64H11727.9V3177.93H11744.9C11774.8 3069.98 11823.4 2989.72 11890.9 2937.16C11958.3 2883.9 12036.8 2857.26 12126.3 2857.26C12150.5 2857.26 12175.3 2859.04 12200.9 2862.59C12226.5 2865.43 12250.2 2870.05 12272.3 2876.44V3329.21C12247.4 3320.69 12214.7 3313.94 12174.3 3308.97C12134.5 3304 12099 3301.51 12067.7 3301.51C12005.9 3301.51 11950.2 3315.36 11900.5 3343.06C11851.5 3370.05 11812.7 3408.05 11784.3 3457.05C11756.6 3505.35 11742.8 3562.16 11742.8 3627.51V4516H11221.8ZM15109.5 3124.66H14576.9C14569.8 3069.98 14555.2 3020.62 14533.2 2976.58C14511.2 2932.55 14482 2894.91 14445.8 2863.66C14409.6 2832.41 14366.6 2808.61 14316.9 2792.28C14267.9 2775.23 14213.6 2766.71 14153.9 2766.71C14048.1 2766.71 13956.8 2792.63 13880.1 2844.48C13804.1 2896.33 13745.5 2971.26 13704.3 3069.27C13663.9 3167.28 13643.6 3285.89 13643.6 3425.09C13643.6 3569.98 13664.2 3691.43 13705.4 3789.44C13747.3 3886.74 13805.9 3960.25 13881.2 4009.96C13957.2 4058.97 14047 4083.47 14150.7 4083.47C14209 4083.47 14261.9 4076.01 14309.5 4061.1C14357.8 4046.18 14400 4024.52 14436.2 3996.11C14473.2 3966.99 14503.4 3931.84 14526.8 3890.64C14550.9 3848.74 14567.6 3801.51 14576.9 3748.95L15109.5 3752.15C15100.3 3848.74 15072.2 3943.91 15025.4 4037.66C14979.2 4131.41 14915.6 4216.99 14834.7 4294.41C14753.7 4371.11 14655 4432.19 14538.5 4477.65C14422.7 4523.1 14289.9 4545.83 14140.1 4545.83C13942.6 4545.83 13765.8 4502.51 13609.5 4415.86C13454 4328.5 13331.1 4201.37 13240.9 4034.47C13150.7 3867.56 13105.6 3664.44 13105.6 3425.09C13105.6 3185.03 13151.4 2981.55 13243.1 2814.65C13334.7 2647.75 13458.6 2520.97 13614.9 2434.32C13771.1 2347.68 13946.2 2304.35 14140.1 2304.35C14272.2 2304.35 14394.3 2322.82 14506.6 2359.75C14618.8 2395.97 14717.5 2449.24 14802.7 2519.55C14887.9 2589.15 14957.2 2674.74 15010.5 2776.3C15063.7 2877.86 15096.8 2993.98 15109.5 3124.66ZM15872.6 4543.7C15768.2 4543.7 15675.5 4526.3 15594.5 4491.5C15514.3 4455.99 15450.7 4402.72 15403.8 4331.7C15357.7 4259.96 15334.6 4170.12 15334.6 4062.16C15334.6 3971.26 15350.6 3894.55 15382.5 3832.05C15414.5 3769.55 15458.5 3718.77 15514.6 3679.71C15570.7 3640.64 15635.4 3611.17 15708.5 3591.28C15781.7 3570.69 15859.8 3556.84 15942.9 3549.74C16035.9 3541.21 16110.9 3532.34 16167.7 3523.1C16224.5 3513.16 16265.7 3499.31 16291.3 3481.55C16317.5 3463.09 16330.7 3437.16 16330.7 3403.78V3398.46C16330.7 3343.77 16311.9 3301.51 16274.2 3271.68C16236.6 3241.85 16185.8 3226.94 16121.9 3226.94C16053 3226.94 15997.6 3241.85 15955.7 3271.68C15913.8 3301.51 15887.1 3342.7 15875.8 3395.26L15395.3 3378.22C15409.5 3278.78 15446.1 3190.01 15505 3111.88C15564.7 3033.05 15646.4 2971.26 15750.1 2926.51C15854.5 2881.06 15979.8 2858.33 16126.1 2858.33C16230.5 2858.33 16326.8 2870.76 16414.8 2895.62C16502.9 2919.76 16579.6 2955.28 16645 3002.15C16710.3 3048.32 16760.7 3105.13 16796.2 3172.61C16832.5 3240.08 16850.6 3317.14 16850.6 3403.78V4516H16360.5V4288.02H16347.7C16318.6 4343.41 16281.3 4390.29 16235.9 4428.64C16191.1 4466.99 16138.2 4495.76 16077.1 4514.93C16016.8 4534.11 15948.6 4543.7 15872.6 4543.7ZM16033.5 4202.79C16089.6 4202.79 16140 4191.43 16184.7 4168.7C16230.2 4145.97 16266.4 4114.72 16293.4 4074.95C16320.4 4034.47 16333.9 3987.59 16333.9 3934.32V3778.78C16319 3786.6 16300.9 3793.7 16279.5 3800.09C16258.9 3806.48 16236.2 3812.52 16211.4 3818.2C16186.5 3823.88 16160.9 3828.86 16134.7 3833.12C16108.4 3837.38 16083.2 3841.28 16059 3844.84C16010 3852.65 15968.1 3864.72 15933.3 3881.06C15899.2 3897.39 15872.9 3918.7 15854.5 3944.98C15836.7 3970.55 15827.8 4001.09 15827.8 4036.6C15827.8 4090.57 15847 4131.77 15885.4 4160.18C15924.4 4188.59 15973.8 4202.79 16033.5 4202.79ZM17169.1 4516V2879.64H17675.1V3177.93H17692.2C17722 3069.98 17770.7 2989.72 17838.1 2937.16C17905.6 2883.9 17984.1 2857.26 18073.6 2857.26C18097.7 2857.26 18122.6 2859.04 18148.2 2862.59C18173.7 2865.43 18197.5 2870.05 18219.5 2876.44V3329.21C18194.7 3320.69 18162 3313.94 18121.5 3308.97C18081.7 3304 18046.2 3301.51 18015 3301.51C17953.2 3301.51 17897.4 3315.36 17847.7 3343.06C17798.7 3370.05 17760 3408.05 17731.6 3457.05C17703.9 3505.35 17690.1 3562.16 17690.1 3627.51V4516H17169.1ZM19111.8 4546.89C18940.6 4546.89 18792.9 4513.16 18668.6 4445.69C18545 4377.51 18449.8 4280.56 18383.1 4154.85C18317 4028.43 18284 3878.22 18284 3704.21C18284 3535.18 18317.4 3387.45 18384.1 3261.03C18450.9 3133.9 18545 3035.18 18666.4 2964.86C18787.9 2893.84 18931 2858.33 19095.8 2858.33C19212.3 2858.33 19318.8 2876.44 19415.4 2912.66C19512 2948.88 19595.4 3002.51 19665.7 3073.53C19736 3144.55 19790.7 3232.26 19829.8 3336.67C19868.9 3440.36 19888.4 3559.32 19888.4 3693.56V3823.53H18466.2V3520.97H19403.7C19402.9 3465.57 19389.8 3416.21 19364.2 3372.89C19338.7 3329.57 19303.5 3295.83 19258.8 3271.68C19214.7 3246.82 19164 3234.39 19106.4 3234.39C19048.2 3234.39 18996 3247.53 18949.8 3273.81C18903.7 3299.38 18867.1 3334.54 18840.1 3379.28C18813.1 3423.32 18798.9 3473.39 18797.5 3529.49V3837.38C18797.5 3904.14 18810.6 3962.73 18836.9 4013.16C18863.2 4062.87 18900.5 4101.58 18948.8 4129.28C18997.1 4156.98 19054.6 4170.83 19121.3 4170.83C19167.5 4170.83 19209.4 4164.44 19247.1 4151.65C19284.7 4138.87 19317 4120.05 19344 4095.19C19371 4070.33 19391.2 4039.79 19404.7 4003.57L19883.1 4017.42C19863.2 4124.66 19819.5 4218.06 19752 4297.61C19685.3 4376.44 19597.5 4437.87 19488.9 4481.91C19380.2 4525.23 19254.5 4546.89 19111.8 4546.89Z" fill="#007AFF"/>
</svg>
