<svg width="1000" height="700" viewBox="0 0 1000 700" fill="none" xmlns="http://www.w3.org/2000/svg">
<path d="M248.502 361.501C249.444 360.217 250.94 359.459 252.532 359.459H500H747.468C749.06 359.459 750.556 360.217 751.498 361.501L994.157 692.041C996.581 695.343 994.223 700 990.127 700H9.87333C5.77664 700 3.41851 695.343 5.84284 692.041L248.502 361.501Z" fill="#007AFF"/>
<path d="M469.512 170.513C469.512 262.966 348.258 418.187 301.319 476.15C300.038 477.732 297.694 477.61 296.562 475.919C257.62 417.777 128.049 262.844 128.049 170.513C128.049 76.3412 204.488 0 298.781 0C393.073 0 469.512 76.3412 469.512 170.513Z" fill="#FFCC00"/>
<ellipse cx="298.781" cy="176.374" rx="75.8808" ry="76.6847" fill="white"/>
<rect x="397.5" y="321.5" width="382" height="281" fill="white" stroke="#007AFF" stroke-width="5"/>
<rect x="445.107" y="369.857" width="288.21" height="241.855" fill="#007AFF"/>
<path d="M711.727 449.073H682.208L674.003 427.276C665.572 404.867 645.451 390.39 622.736 390.39H560.118C537.408 390.39 517.281 404.867 508.845 427.276L500.641 449.073H471.127C467.276 449.073 464.451 452.919 465.388 456.885L468.346 469.46C469.002 472.258 471.368 474.223 474.085 474.223H483.981C477.359 480.369 473.094 489.303 473.094 499.373V524.523C473.094 532.969 476.131 540.593 480.983 546.493V574.823C480.983 584.082 488.048 591.59 496.761 591.59H512.538C521.251 591.59 528.316 584.082 528.316 574.823V558.057H654.538V574.823C654.538 584.082 661.603 591.59 670.315 591.59H686.093C694.805 591.59 701.871 584.082 701.871 574.823V546.493C706.722 540.598 709.759 532.975 709.759 524.523V499.373C709.759 489.303 705.495 480.369 698.878 474.223H708.773C711.49 474.223 713.857 472.258 714.512 469.46L717.471 456.885C718.403 452.919 715.577 449.073 711.727 449.073ZM538.143 439.731C541.737 430.184 550.439 423.923 560.118 423.923H622.736C632.414 423.923 641.117 430.184 644.711 439.731L654.538 465.84H528.316L538.143 439.731ZM512.538 524.418C503.072 524.418 496.761 517.733 496.761 507.704C496.761 497.676 503.072 490.99 512.538 490.99C522.005 490.99 536.205 506.033 536.205 516.061C536.205 526.09 522.005 524.418 512.538 524.418ZM670.315 524.418C660.849 524.418 646.649 526.09 646.649 516.061C646.649 506.033 660.849 490.99 670.315 490.99C679.782 490.99 686.093 497.676 686.093 507.704C686.093 517.733 679.782 524.418 670.315 524.418Z" fill="white"/>
<path d="M447.176 289.789H735.682V309.909H447.176V289.789Z" fill="#007AFF"/>
<path d="M585.618 193.12L804.571 303.877C807.859 305.54 806.676 310.5 802.991 310.5H371.176C367.513 310.5 366.311 305.586 369.56 303.895L582.423 193.139C583.423 192.618 584.613 192.612 585.618 193.12Z" fill="white" stroke="#007AFF" stroke-width="5"/>
<mask id="path-9-inside-1_416_373" fill="white">
<path d="M395 308H782V325H395V308Z"/>
</mask>
<path d="M395 308H782V325H395V308Z" fill="white"/>
<path d="M777 308V325H787V308H777ZM400 325V308H390V325H400Z" fill="#007AFF" mask="url(#path-9-inside-1_416_373)"/>
<rect x="449.332" y="305.042" width="284.954" height="13.6298" fill="#007AFF"/>
<rect x="449.332" y="339.116" width="284.954" height="13.6298" fill="#007AFF"/>
<path d="M586.845 291.743C581.617 291.743 577.129 290.596 573.379 288.3C569.652 286.005 566.777 282.834 564.754 278.789C562.754 274.721 561.754 270.039 561.754 264.743C561.754 259.425 562.777 254.732 564.822 250.664C566.867 246.573 569.754 243.391 573.481 241.118C577.231 238.823 581.663 237.675 586.777 237.675C591.027 237.675 594.788 238.459 598.061 240.028C601.356 241.573 603.981 243.766 605.936 246.607C607.89 249.425 609.004 252.721 609.277 256.493H597.481C597.004 253.971 595.867 251.868 594.072 250.187C592.299 248.482 589.924 247.63 586.947 247.63C584.424 247.63 582.208 248.312 580.299 249.675C578.39 251.016 576.902 252.948 575.833 255.471C574.788 257.993 574.265 261.016 574.265 264.539C574.265 268.107 574.788 271.175 575.833 273.743C576.879 276.289 578.345 278.255 580.231 279.641C582.14 281.005 584.379 281.687 586.947 281.687C588.765 281.687 590.39 281.346 591.822 280.664C593.277 279.959 594.492 278.948 595.47 277.63C596.447 276.312 597.117 274.709 597.481 272.823H609.277C608.981 276.528 607.89 279.812 606.004 282.675C604.117 285.516 601.549 287.743 598.299 289.357C595.049 290.948 591.231 291.743 586.845 291.743Z" fill="#007AFF"/>
</svg>
