<?xml version="1.0" encoding="UTF-8" standalone="no" ?>
<!DOCTYPE svg PUBLIC "-//W3C//DTD SVG 1.1//EN" "http://www.w3.org/Graphics/SVG/1.1/DTD/svg11.dtd">
<svg xmlns="http://www.w3.org/2000/svg" xmlns:xlink="http://www.w3.org/1999/xlink" version="1.1" width="640" height="640" viewBox="0 0 640 640" xml:space="preserve">
<desc>Created with Fabric.js 5.3.0</desc>
<defs>
</defs>
<g transform="matrix(29.9247970952 0 0 29.9247970952 320 320)" id="H4LFOgFXQeKTNnreH4H03"  >
<path style="stroke: none; stroke-width: 1; stroke-dasharray: none; stroke-linecap: butt; stroke-dashoffset: 0; stroke-linejoin: miter; stroke-miterlimit: 4; fill: rgb(255,255,255); fill-rule: evenodd; opacity: 1;"  transform=" translate(-10, -10)" d="M 19 4 C 19 4.552284749830793 18.552284749830793 5 18 5 L 2 5 C 1.4477152501692065 5 1 4.552284749830793 1 4 C 1 3.4477152501692068 1.4477152501692065 3 2 3 L 18 3 C 18.552284749830793 3 19 3.4477152501692063 19 4 z M 19 10 C 19 10.552284749830793 18.552284749830793 11 18 11 L 2 11 C 1.4477152501692065 11 1 10.552284749830793 1 10 C 1 9.447715250169207 1.4477152501692065 9 2 9 L 18 9 C 18.552284749830793 9 19 9.447715250169207 19 10 z M 18 17 C 18.552284749830793 17 19 16.552284749830793 19 16 C 19 15.447715250169207 18.552284749830793 15 18 15 L 2 15 C 1.4477152501692065 15 1 15.447715250169207 1 16 C 1 16.552284749830793 1.4477152501692065 17 2 17 L 18 17 z" stroke-linecap="round" />
</g>
</svg>