<?xml version="1.0" encoding="UTF-8" standalone="no" ?>
<!DOCTYPE svg PUBLIC "-//W3C//DTD SVG 1.1//EN" "http://www.w3.org/Graphics/SVG/1.1/DTD/svg11.dtd">
<svg xmlns="http://www.w3.org/2000/svg" xmlns:xlink="http://www.w3.org/1999/xlink" version="1.1" width="640" height="640" viewBox="0 0 640 640" xml:space="preserve">
<desc>Created with Fabric.js 5.3.0</desc>
<defs>
</defs>
<g transform="matrix(5.1559424747 0 0 5.1559424747 319.4475620544 319.4502565449)" id="PZA7SbBclY4NG9I7zP3yY"  >
<path style="stroke: none; stroke-width: 1; stroke-dasharray: none; stroke-linecap: butt; stroke-dashoffset: 0; stroke-linejoin: miter; stroke-miterlimit: 4; fill: rgb(0,122,255); fill-rule: nonzero; opacity: 1;"  transform=" translate(-61.4296867559, -61.1311089021)" d="M 33.84 50.25 C 37.970000000000006 57.7 42.730000000000004 64.85 48.910000000000004 71.37 C 55.11000000000001 77.93 62.82000000000001 83.9 72.80000000000001 89 C 73.54 89.36 74.24000000000001 89.36 74.87 89.11 C 75.82000000000001 88.75 76.79 87.96 77.74000000000001 87.01 C 78.48 86.27000000000001 79.4 85.09 80.36000000000001 83.80000000000001 C 84.20000000000002 78.75000000000001 88.95000000000002 72.48000000000002 95.66000000000001 75.62 C 95.81000000000002 75.69 95.92000000000002 75.77000000000001 96.07000000000001 75.83 L 118.45 88.7 C 118.52 88.74000000000001 118.60000000000001 88.81 118.66 88.85000000000001 C 121.61 90.88000000000001 122.83 94.01 122.86 97.56 C 122.86 101.17 121.53 105.23 119.58 108.66 C 117 113.19 113.2 116.19 108.82 118.17 C 104.64999999999999 120.09 100.00999999999999 121.12 95.55 121.78 C 88.55 122.81 81.99 122.15 75.28 120.09 C 68.72 118.06 62.11 114.71000000000001 54.89 110.25 L 54.36 109.91 C 51.05 107.84 47.47 105.63 43.96 103.02 C 31.12 93.32 18.03 79.31 9.5 63.89 C 2.35 50.95 -1.55 36.98 0.58 23.67 C 1.7599999999999998 16.37 4.89 9.730000000000002 10.35 5.350000000000001 C 15.11 1.5100000000000016 21.52 -0.589999999999999 29.82 0.15000000000000124 C 30.77 0.22000000000000125 31.62 0.7700000000000012 32.07 1.5900000000000012 L 46.42 25.85 C 48.52 28.57 48.78 31.270000000000003 47.63 33.97 C 46.68 36.18 44.760000000000005 38.22 42.14 40.12 C 41.37 40.779999999999994 40.45 41.449999999999996 39.480000000000004 42.15 C 36.27 44.48 32.620000000000005 47.17 33.870000000000005 50.33 L 33.84 50.25 L 33.84 50.25 L 33.84 50.25 z" stroke-linecap="round" />
</g>
</svg>