<svg width="1000" height="1000" viewBox="0 0 1000 1000" fill="none" xmlns="http://www.w3.org/2000/svg">
<path d="M317.5 866.217V861.217H312.5H125C91.4512 861.217 61.2433 851.476 39.55 835.994C17.8449 820.504 5 799.57 5 777.008V375.567C5 353.005 17.8449 332.071 39.55 316.581C61.2433 301.099 91.4512 291.358 125 291.358H875C908.549 291.358 938.757 301.099 960.45 316.581C982.155 332.071 995 353.005 995 375.567V777.008C995 799.57 982.155 820.504 960.45 835.994C938.757 851.476 908.549 861.217 875 861.217H604.102H602.847L601.742 861.809L360.178 991.142C360.171 991.145 360.164 991.149 360.158 991.153C351.863 995.493 340.633 996.258 331.368 992.952C322.006 989.611 317.5 983.374 317.5 977.728V866.217Z" fill="white" stroke="#007AFF" stroke-width="10"/>
<path d="M125.7 621.47L85.3848 627.676L84.6708 627.831C83.5898 628.135 82.6044 628.739 81.8152 629.58C81.0259 630.422 80.4611 631.47 80.1784 632.619C79.8957 633.768 79.9052 634.976 80.206 636.12C80.5068 637.263 81.088 638.302 81.8904 639.129L111.097 669.314L104.209 711.951L104.127 712.689C104.061 713.876 104.293 715.06 104.799 716.121C105.306 717.181 106.069 718.079 107.01 718.724C107.952 719.368 109.037 719.735 110.156 719.788C111.275 719.84 112.387 719.576 113.378 719.022L149.433 698.895L185.407 719.022L186.039 719.331C187.082 719.767 188.216 719.901 189.323 719.718C190.431 719.536 191.473 719.044 192.343 718.293C193.212 717.542 193.878 716.558 194.272 715.444C194.665 714.329 194.772 713.124 194.582 711.951L187.688 669.314L216.907 639.122L217.4 638.552C218.104 637.631 218.566 636.529 218.738 635.357C218.91 634.185 218.786 632.986 218.38 631.881C217.973 630.776 217.298 629.806 216.424 629.069C215.549 628.331 214.505 627.853 213.4 627.683L173.085 621.47L155.064 582.691C154.542 581.567 153.735 580.621 152.733 579.96C151.731 579.298 150.575 578.947 149.396 578.947C148.216 578.947 147.06 579.298 146.058 579.96C145.056 580.621 144.249 581.567 143.727 582.691L125.7 621.47Z" fill="#007AFF"/>
<path d="M113.395 621.47L73.0801 627.676L72.3661 627.831C71.2851 628.135 70.2997 628.739 69.5105 629.58C68.7212 630.422 68.1564 631.47 67.8737 632.619C67.591 633.768 67.6005 634.976 67.9013 636.12C68.2021 637.263 68.7833 638.302 69.5857 639.129L98.7918 669.314L91.9042 711.951L91.8221 712.689C91.7559 713.876 91.988 715.06 92.4947 716.121C93.0014 717.181 93.7644 718.079 94.7056 718.724C95.6468 719.368 96.7324 719.735 97.8513 719.788C98.9701 719.84 100.082 719.576 101.073 719.022L137.129 698.895L173.102 719.022L173.734 719.331C174.777 719.767 175.911 719.901 177.019 719.718C178.126 719.536 179.169 719.044 180.038 718.293C180.908 717.542 181.573 716.558 181.967 715.444C182.36 714.329 182.468 713.124 182.278 711.951L175.384 669.314L204.602 639.122L205.095 638.552C205.799 637.631 206.261 636.529 206.433 635.357C206.605 634.185 206.482 632.986 206.075 631.881C205.669 630.776 204.994 629.806 204.119 629.069C203.244 628.331 202.201 627.853 201.095 627.683L160.781 621.47L142.759 582.691C142.237 581.567 141.43 580.621 140.428 579.96C139.427 579.298 138.271 578.947 137.091 578.947C135.911 578.947 134.755 579.298 133.753 579.96C132.752 580.621 131.944 581.567 131.423 582.691L113.395 621.47Z" fill="#FFCC00"/>
<path d="M304.96 621.47L264.645 627.676L263.931 627.831C262.85 628.135 261.865 628.739 261.075 629.58C260.286 630.422 259.721 631.47 259.439 632.619C259.156 633.768 259.165 634.976 259.466 636.12C259.767 637.263 260.348 638.302 261.151 639.129L290.357 669.314L283.469 711.951L283.387 712.689C283.321 713.876 283.553 715.06 284.06 716.121C284.566 717.181 285.329 718.079 286.271 718.724C287.212 719.368 288.297 719.735 289.416 719.788C290.535 719.84 291.647 719.576 292.638 719.022L328.694 698.895L364.667 719.022L365.299 719.331C366.342 719.767 367.476 719.901 368.584 719.718C369.691 719.536 370.733 719.044 371.603 718.293C372.473 717.542 373.138 716.558 373.532 715.444C373.925 714.329 374.033 713.124 373.842 711.951L366.949 669.314L396.167 639.122L396.66 638.552C397.364 637.631 397.826 636.529 397.998 635.357C398.17 634.185 398.047 632.986 397.64 631.881C397.234 630.776 396.559 629.806 395.684 629.069C394.809 628.331 393.766 627.853 392.66 627.683L352.345 621.47L334.324 582.691C333.802 581.567 332.995 580.621 331.993 579.96C330.992 579.298 329.836 578.947 328.656 578.947C327.476 578.947 326.32 579.298 325.318 579.96C324.316 580.621 323.509 581.567 322.988 582.691L304.96 621.47Z" fill="#007AFF"/>
<path d="M292.658 621.47L252.343 627.676L251.629 627.831C250.548 628.135 249.562 628.739 248.773 629.58C247.984 630.422 247.419 631.47 247.136 632.619C246.854 633.768 246.863 634.976 247.164 636.12C247.465 637.263 248.046 638.302 248.848 639.129L278.055 669.314L271.167 711.951L271.085 712.689C271.019 713.876 271.251 715.06 271.757 716.121C272.264 717.181 273.027 718.079 273.968 718.724C274.91 719.368 275.995 719.735 277.114 719.788C278.233 719.84 279.345 719.576 280.336 719.022L316.391 698.895L352.365 719.022L352.997 719.331C354.04 719.767 355.174 719.901 356.281 719.718C357.389 719.536 358.431 719.044 359.301 718.293C360.17 717.542 360.836 716.558 361.23 715.444C361.623 714.329 361.73 713.124 361.54 711.951L354.646 669.314L383.865 639.122L384.358 638.552C385.062 637.631 385.524 636.529 385.696 635.357C385.868 634.185 385.744 632.986 385.338 631.881C384.931 630.776 384.256 629.806 383.382 629.069C382.507 628.331 381.463 627.853 380.358 627.683L340.043 621.47L322.022 582.691C321.5 581.567 320.693 580.621 319.691 579.96C318.689 579.298 317.533 578.947 316.354 578.947C315.174 578.947 314.018 579.298 313.016 579.96C312.014 580.621 311.207 581.567 310.685 582.691L292.658 621.47Z" fill="#FFCC00"/>
<path d="M484.223 621.47L443.908 627.676L443.194 627.831C442.113 628.135 441.127 628.739 440.338 629.58C439.549 630.422 438.984 631.47 438.701 632.619C438.419 633.768 438.428 634.976 438.729 636.12C439.03 637.263 439.611 638.302 440.413 639.129L469.619 669.314L462.732 711.951L462.65 712.689C462.584 713.876 462.816 715.06 463.322 716.121C463.829 717.181 464.592 718.079 465.533 718.724C466.474 719.368 467.56 719.735 468.679 719.788C469.798 719.84 470.91 719.576 471.901 719.022L507.956 698.895L543.93 719.022L544.562 719.331C545.605 719.767 546.739 719.901 547.846 719.718C548.954 719.536 549.996 719.044 550.866 718.293C551.735 717.542 552.401 716.558 552.795 715.444C553.188 714.329 553.295 713.124 553.105 711.951L546.211 669.314L575.43 639.122L575.923 638.552C576.627 637.631 577.089 636.529 577.261 635.357C577.433 634.185 577.309 632.986 576.903 631.881C576.496 630.776 575.821 629.806 574.946 629.069C574.072 628.331 573.028 627.853 571.923 627.683L531.608 621.47L513.587 582.691C513.065 581.567 512.258 580.621 511.256 579.96C510.254 579.298 509.098 578.947 507.919 578.947C506.739 578.947 505.583 579.298 504.581 579.96C503.579 580.621 502.772 581.567 502.25 582.691L484.223 621.47Z" fill="#007AFF"/>
<path d="M471.92 621.47L431.605 627.676L430.891 627.831C429.811 628.135 428.825 628.739 428.036 629.58C427.247 630.422 426.682 631.47 426.399 632.619C426.116 633.768 426.126 634.976 426.427 636.12C426.727 637.263 427.309 638.302 428.111 639.129L457.317 669.314L450.43 711.951L450.347 712.689C450.281 713.876 450.513 715.06 451.02 716.121C451.527 717.181 452.29 718.079 453.231 718.724C454.172 719.368 455.258 719.735 456.377 719.788C457.495 719.84 458.607 719.576 459.598 719.022L495.654 698.895L531.628 719.022L532.26 719.331C533.303 719.767 534.436 719.901 535.544 719.718C536.652 719.536 537.694 719.044 538.563 718.293C539.433 717.542 540.099 716.558 540.492 715.444C540.886 714.329 540.993 713.124 540.803 711.951L533.909 669.314L563.128 639.122L563.621 638.552C564.325 637.631 564.786 636.529 564.958 635.357C565.131 634.185 565.007 632.986 564.601 631.881C564.194 630.776 563.519 629.806 562.644 629.069C561.769 628.331 560.726 627.853 559.621 627.683L519.306 621.47L501.284 582.691C500.763 581.567 499.956 580.621 498.954 579.96C497.952 579.298 496.796 578.947 495.616 578.947C494.437 578.947 493.28 579.298 492.279 579.96C491.277 580.621 490.47 581.567 489.948 582.691L471.92 621.47Z" fill="#FFCC00"/>
<path d="M663.483 621.47L623.168 627.676L622.454 627.831C621.373 628.135 620.388 628.739 619.598 629.58C618.809 630.422 618.244 631.47 617.962 632.619C617.679 633.768 617.688 634.976 617.989 636.12C618.29 637.263 618.871 638.302 619.674 639.129L648.88 669.314L641.992 711.951L641.91 712.689C641.844 713.876 642.076 715.06 642.583 716.121C643.089 717.181 643.852 718.079 644.793 718.724C645.735 719.368 646.82 719.735 647.939 719.788C649.058 719.84 650.17 719.576 651.161 719.022L687.217 698.895L723.19 719.022L723.822 719.331C724.865 719.767 725.999 719.901 727.107 719.718C728.214 719.536 729.256 719.044 730.126 718.293C730.996 717.542 731.661 716.558 732.055 715.444C732.448 714.329 732.556 713.124 732.365 711.951L725.471 669.314L754.69 639.122L755.183 638.552C755.887 637.631 756.349 636.529 756.521 635.357C756.693 634.185 756.57 632.986 756.163 631.881C755.757 630.776 755.082 629.806 754.207 629.069C753.332 628.331 752.289 627.853 751.183 627.683L710.868 621.47L692.847 582.691C692.325 581.567 691.518 580.621 690.516 579.96C689.515 579.298 688.358 578.947 687.179 578.947C685.999 578.947 684.843 579.298 683.841 579.96C682.839 580.621 682.032 581.567 681.511 582.691L663.483 621.47Z" fill="#007AFF"/>
<path d="M651.181 621.47L610.866 627.676L610.152 627.831C609.071 628.135 608.085 628.739 607.296 629.58C606.507 630.422 605.942 631.47 605.659 632.619C605.377 633.768 605.386 634.976 605.687 636.12C605.988 637.263 606.569 638.302 607.371 639.129L636.577 669.314L629.69 711.951L629.608 712.689C629.542 713.876 629.774 715.06 630.28 716.121C630.787 717.181 631.55 718.079 632.491 718.724C633.432 719.368 634.518 719.735 635.637 719.788C636.756 719.84 637.868 719.576 638.859 719.022L674.914 698.895L710.888 719.022L711.52 719.331C712.563 719.767 713.697 719.901 714.804 719.718C715.912 719.536 716.954 719.044 717.824 718.293C718.693 717.542 719.359 716.558 719.753 715.444C720.146 714.329 720.253 713.124 720.063 711.951L713.169 669.314L742.388 639.122L742.881 638.552C743.585 637.631 744.047 636.529 744.219 635.357C744.391 634.185 744.267 632.986 743.861 631.881C743.454 630.776 742.779 629.806 741.904 629.069C741.03 628.331 739.986 627.853 738.881 627.683L698.566 621.47L680.545 582.691C680.023 581.567 679.216 580.621 678.214 579.96C677.212 579.298 676.056 578.947 674.877 578.947C673.697 578.947 672.541 579.298 671.539 579.96C670.537 580.621 669.73 581.567 669.208 582.691L651.181 621.47Z" fill="#FFCC00"/>
<path d="M842.745 621.47L802.431 627.676L801.717 627.831C800.636 628.135 799.65 628.739 798.861 629.58C798.072 630.422 797.507 631.47 797.224 632.619C796.942 633.768 796.951 634.976 797.252 636.12C797.553 637.263 798.134 638.302 798.936 639.129L828.142 669.314L821.255 711.951L821.173 712.689C821.106 713.876 821.339 715.06 821.845 716.121C822.352 717.181 823.115 718.079 824.056 718.724C824.997 719.368 826.083 719.735 827.202 719.788C828.321 719.84 829.433 719.576 830.424 719.022L866.479 698.895L902.453 719.022L903.085 719.331C904.128 719.767 905.261 719.901 906.369 719.718C907.477 719.536 908.519 719.044 909.389 718.293C910.258 717.542 910.924 716.558 911.317 715.444C911.711 714.329 911.818 713.124 911.628 711.951L904.734 669.314L933.953 639.122L934.446 638.552C935.15 637.631 935.611 636.529 935.784 635.357C935.956 634.185 935.832 632.986 935.426 631.881C935.019 630.776 934.344 629.806 933.469 629.069C932.595 628.331 931.551 627.853 930.446 627.683L890.131 621.47L872.11 582.691C871.588 581.567 870.781 580.621 869.779 579.96C868.777 579.298 867.621 578.947 866.441 578.947C865.262 578.947 864.106 579.298 863.104 579.96C862.102 580.621 861.295 581.567 860.773 582.691L842.745 621.47Z" fill="#007AFF"/>
<path d="M830.443 621.47L790.128 627.676L789.414 627.831C788.333 628.135 787.348 628.739 786.559 629.58C785.77 630.422 785.205 631.47 784.922 632.619C784.639 633.768 784.649 634.976 784.95 636.12C785.25 637.263 785.832 638.302 786.634 639.129L815.84 669.314L808.953 711.951L808.87 712.689C808.804 713.876 809.036 715.06 809.543 716.121C810.05 717.181 810.813 718.079 811.754 718.724C812.695 719.368 813.781 719.735 814.9 719.788C816.018 719.84 817.13 719.576 818.121 719.022L854.177 698.895L890.151 719.022L890.783 719.331C891.826 719.767 892.959 719.901 894.067 719.718C895.175 719.536 896.217 719.044 897.086 718.293C897.956 717.542 898.622 716.558 899.015 715.444C899.409 714.329 899.516 713.124 899.326 711.951L892.432 669.314L921.651 639.122L922.144 638.552C922.848 637.631 923.309 636.529 923.481 635.357C923.654 634.185 923.53 632.986 923.124 631.881C922.717 630.776 922.042 629.806 921.167 629.069C920.292 628.331 919.249 627.853 918.144 627.683L877.829 621.47L859.807 582.691C859.286 581.567 858.479 580.621 857.477 579.96C856.475 579.298 855.319 578.947 854.139 578.947C852.96 578.947 851.803 579.298 850.802 579.96C849.8 580.621 848.993 581.567 848.471 582.691L830.443 621.47Z" fill="#FFCC00"/>
<path d="M528.211 193.941L528.239 194.255L528.533 194.148L633.327 156.04C639.796 153.687 647.443 154.942 654.067 158.622C660.688 162.302 666.25 168.387 668.559 175.639C673.153 190.062 664.906 209.27 638.977 218.542C638.89 218.573 638.803 218.604 638.716 218.635L638.865 219.113C638.952 219.082 639.038 219.051 639.125 219.02C645.539 216.793 653.071 218.062 659.607 221.694C666.228 225.374 671.79 231.459 674.1 238.711C678.708 253.182 670.391 272.471 644.261 281.974L644.336 282.212L644.412 282.45C650.882 280.097 658.529 281.352 665.152 285.032C671.773 288.712 677.335 294.797 679.644 302.049C684.253 316.52 675.936 335.809 649.805 345.312L649.881 345.55L649.957 345.788C656.426 343.435 664.073 344.69 670.697 348.371C677.318 352.05 682.88 358.136 685.189 365.387C689.798 379.858 681.481 399.147 655.35 408.65L511.363 461.011L496.142 458.53L430.997 253.972L441.686 242.036L441.714 242.005L441.731 241.965C443.855 237.085 445.917 229.17 447.744 219.832C449.571 210.488 451.167 199.7 452.352 189.063C453.538 178.426 454.314 167.936 454.502 159.186C454.689 150.45 454.292 143.412 453.112 139.706C450.787 132.405 448.374 119.129 446.524 107.611C445.6 101.856 444.818 96.5451 444.258 92.6479C444.016 90.961 443.816 89.5391 443.664 88.4604L443.597 87.9836C443.518 87.4234 443.455 86.9812 443.41 86.6727C443.388 86.5186 443.37 86.397 443.356 86.3105C443.352 86.2855 443.349 86.2631 443.345 86.2434C443.343 86.229 443.341 86.2161 443.339 86.2047C443.336 86.186 443.33 86.1514 443.321 86.1256L443.321 86.125L443.32 86.1225L443.317 86.1114L443.303 86.066C443.298 86.0502 443.293 86.0313 443.286 86.0095C443.276 85.9752 443.264 85.9336 443.25 85.8849C443.204 85.7251 443.14 85.4889 443.064 85.1852C442.913 84.5777 442.718 83.7004 442.546 82.625C442.2 80.473 441.943 77.5339 442.294 74.3774C442.644 71.2214 443.601 67.8568 445.675 64.8429C447.748 61.8319 450.946 59.1554 455.807 57.3878C468.811 52.6586 477.376 57.4188 477.553 57.5169L477.553 57.5172C481.942 59.9892 489.735 67.3149 497.605 77.7003C505.469 88.0791 513.387 101.486 518.04 116.095C520.363 123.39 522.205 134.929 523.816 148.618C525.344 161.589 526.663 176.472 527.992 191.471C528.065 192.294 528.138 193.117 528.211 193.941ZM306.949 323.478C303.816 313.64 301.438 303.702 299.464 293.788L402.154 256.445L419.748 266.222L480.274 456.278L477.355 488.074C401.419 470.788 334.666 410.51 306.949 323.478Z" fill="#007AFF" stroke="white" stroke-width="0.5"/>
<path d="M299.276 293.922L414.334 251.709L449.72 366.148L449.722 366.156L469.891 430.684L469.911 430.749L469.936 430.814L481.799 462.516L478.389 490.941L449.576 479.927L409.817 459.721L346.484 423.551L322.946 387.978L311.007 352.138L299.276 293.922Z" fill="#FFCC00" stroke="white" stroke-width="5"/>
<rect x="425.1" y="282.105" width="14.0125" height="32.9645" transform="rotate(-17.4702 425.1 282.105)" fill="white"/>
</svg>
