<svg width="1000" height="650" viewBox="0 0 1000 650" fill="none" xmlns="http://www.w3.org/2000/svg">
<rect width="775.772" height="473.015" rx="15" transform="matrix(0.992692 -0.120674 0.106834 0.994277 179.364 93.6155)" fill="#007AFF"/>
<rect x="0.827848" y="1.1641" width="647.578" height="419.848" rx="14" transform="matrix(0.984316 0.176416 -0.156468 0.987683 267.459 118.62)" fill="white" stroke="#007AFF" stroke-width="2"/>
<path d="M569.382 280.182H555.201C554.655 277.152 553.64 274.485 552.155 272.182C550.67 269.879 548.852 267.924 546.701 266.318C544.549 264.712 542.14 263.5 539.473 262.682C536.837 261.864 534.034 261.455 531.064 261.455C525.701 261.455 520.898 262.803 516.655 265.5C512.443 268.197 509.11 272.152 506.655 277.364C504.231 282.576 503.019 288.939 503.019 296.455C503.019 304.03 504.231 310.424 506.655 315.636C509.11 320.848 512.458 324.788 516.701 327.455C520.943 330.121 525.716 331.455 531.019 331.455C533.958 331.455 536.746 331.061 539.382 330.273C542.049 329.455 544.458 328.258 546.61 326.682C548.761 325.106 550.579 323.182 552.064 320.909C553.579 318.606 554.625 315.97 555.201 313L569.382 313.045C568.625 317.621 567.155 321.833 564.973 325.682C562.822 329.5 560.049 332.803 556.655 335.591C553.291 338.348 549.443 340.485 545.11 342C540.776 343.515 536.049 344.273 530.928 344.273C522.867 344.273 515.685 342.364 509.382 338.545C503.079 334.697 498.11 329.197 494.473 322.045C490.867 314.894 489.064 306.364 489.064 296.455C489.064 286.515 490.882 277.985 494.519 270.864C498.155 263.712 503.125 258.227 509.428 254.409C515.731 250.561 522.898 248.636 530.928 248.636C535.867 248.636 540.473 249.348 544.746 250.773C549.049 252.167 552.913 254.227 556.337 256.955C559.761 259.652 562.594 262.955 564.837 266.864C567.079 270.742 568.594 275.182 569.382 280.182ZM605.416 344.545C600.992 344.545 596.992 343.727 593.416 342.091C589.841 340.424 587.007 338.015 584.916 334.864C582.856 331.712 581.826 327.848 581.826 323.273C581.826 319.333 582.583 316.091 584.098 313.545C585.613 311 587.659 308.985 590.235 307.5C592.81 306.015 595.689 304.894 598.871 304.136C602.053 303.379 605.295 302.803 608.598 302.409C612.78 301.924 616.174 301.53 618.78 301.227C621.386 300.894 623.28 300.364 624.462 299.636C625.644 298.909 626.235 297.727 626.235 296.091V295.773C626.235 291.803 625.113 288.727 622.871 286.545C620.659 284.364 617.356 283.273 612.962 283.273C608.386 283.273 604.78 284.288 602.144 286.318C599.538 288.318 597.735 290.545 596.735 293L583.962 290.091C585.477 285.848 587.689 282.424 590.598 279.818C593.538 277.182 596.916 275.273 600.735 274.091C604.553 272.879 608.568 272.273 612.78 272.273C615.568 272.273 618.523 272.606 621.644 273.273C624.795 273.909 627.735 275.091 630.462 276.818C633.219 278.545 635.477 281.015 637.235 284.227C638.992 287.409 639.871 291.545 639.871 296.636V343H626.598V333.455H626.053C625.174 335.212 623.856 336.939 622.098 338.636C620.341 340.333 618.083 341.742 615.326 342.864C612.568 343.985 609.265 344.545 605.416 344.545ZM608.371 333.636C612.129 333.636 615.341 332.894 618.007 331.409C620.704 329.924 622.75 327.985 624.144 325.591C625.568 323.167 626.28 320.576 626.28 317.818V308.818C625.795 309.303 624.856 309.758 623.462 310.182C622.098 310.576 620.538 310.924 618.78 311.227C617.023 311.5 615.31 311.758 613.644 312C611.977 312.212 610.583 312.394 609.462 312.545C606.826 312.879 604.416 313.439 602.235 314.227C600.083 315.015 598.356 316.152 597.053 317.636C595.78 319.091 595.144 321.03 595.144 323.455C595.144 326.818 596.386 329.364 598.871 331.091C601.356 332.788 604.523 333.636 608.371 333.636ZM657.973 343V273.182H671.11V284.273H671.837C673.11 280.515 675.352 277.561 678.564 275.409C681.807 273.227 685.473 272.136 689.564 272.136C690.413 272.136 691.413 272.167 692.564 272.227C693.746 272.288 694.67 272.364 695.337 272.455V285.455C694.791 285.303 693.822 285.136 692.428 284.955C691.034 284.742 689.64 284.636 688.246 284.636C685.034 284.636 682.17 285.318 679.655 286.682C677.17 288.015 675.201 289.879 673.746 292.273C672.291 294.636 671.564 297.333 671.564 300.364V343H657.973ZM457.82 421.136V404.909H534.274V421.136H505.774V498H486.32V421.136H457.82ZM546.502 498V428.182H565.865V498H546.502ZM556.229 419.182C553.35 419.182 550.88 418.227 548.82 416.318C546.79 414.379 545.774 412.061 545.774 409.364C545.774 406.697 546.79 404.409 548.82 402.5C550.88 400.561 553.35 399.591 556.229 399.591C559.108 399.591 561.562 400.561 563.593 402.5C565.653 404.409 566.684 406.697 566.684 409.364C566.684 412.061 565.653 414.379 563.593 416.318C561.562 418.227 559.108 419.182 556.229 419.182ZM581.377 524.182V428.182H600.468V439.909H601.331C602.18 438.03 603.407 436.121 605.013 434.182C606.649 432.212 608.771 430.576 611.377 429.273C614.013 427.939 617.286 427.273 621.195 427.273C626.286 427.273 630.983 428.606 635.286 431.273C639.589 433.909 643.028 437.894 645.604 443.227C648.18 448.53 649.468 455.182 649.468 463.182C649.468 470.97 648.21 477.545 645.695 482.909C643.21 488.242 639.816 492.288 635.513 495.045C631.24 497.773 626.452 499.136 621.149 499.136C617.392 499.136 614.195 498.515 611.559 497.273C608.952 496.03 606.816 494.47 605.149 492.591C603.483 490.682 602.21 488.758 601.331 486.818H600.74V524.182H581.377ZM600.331 463.091C600.331 467.242 600.907 470.864 602.059 473.955C603.21 477.045 604.877 479.455 607.059 481.182C609.24 482.879 611.892 483.727 615.013 483.727C618.165 483.727 620.831 482.864 623.013 481.136C625.195 479.379 626.846 476.955 627.968 473.864C629.119 470.742 629.695 467.152 629.695 463.091C629.695 459.061 629.134 455.515 628.013 452.455C626.892 449.394 625.24 447 623.059 445.273C620.877 443.545 618.195 442.682 615.013 442.682C611.862 442.682 609.195 443.515 607.013 445.182C604.862 446.848 603.21 449.212 602.059 452.273C600.907 455.333 600.331 458.939 600.331 463.091ZM720.468 448.091L702.74 449.182C702.437 447.667 701.786 446.303 700.786 445.091C699.786 443.848 698.468 442.864 696.831 442.136C695.225 441.379 693.301 441 691.059 441C688.059 441 685.528 441.636 683.468 442.909C681.407 444.152 680.377 445.818 680.377 447.909C680.377 449.576 681.043 450.985 682.377 452.136C683.71 453.288 685.998 454.212 689.24 454.909L701.877 457.455C708.665 458.848 713.725 461.091 717.059 464.182C720.392 467.273 722.059 471.333 722.059 476.364C722.059 480.939 720.71 484.955 718.013 488.409C715.346 491.864 711.68 494.561 707.013 496.5C702.377 498.409 697.028 499.364 690.968 499.364C681.725 499.364 674.362 497.439 668.877 493.591C663.422 489.712 660.225 484.439 659.286 477.773L678.331 476.773C678.907 479.591 680.301 481.742 682.513 483.227C684.725 484.682 687.559 485.409 691.013 485.409C694.407 485.409 697.134 484.758 699.195 483.455C701.286 482.121 702.346 480.409 702.377 478.318C702.346 476.561 701.604 475.121 700.149 474C698.695 472.848 696.452 471.97 693.422 471.364L681.331 468.955C674.513 467.591 669.437 465.227 666.104 461.864C662.801 458.5 661.149 454.212 661.149 449C661.149 444.515 662.362 440.652 664.786 437.409C667.24 434.167 670.68 431.667 675.104 429.909C679.559 428.152 684.771 427.273 690.74 427.273C699.559 427.273 706.498 429.136 711.559 432.864C716.649 436.591 719.619 441.667 720.468 448.091Z" fill="#007AFF"/>
<ellipse cx="155.765" cy="304.644" rx="131.658" ry="137.08" fill="white"/>
<path d="M174.597 523.847C174.597 545.937 158.056 564.011 137.84 564.011C117.623 564.011 101.082 545.937 101.082 523.847H174.597ZM211.354 503.764V463.6H64.3251V503.764H211.354ZM275.679 312.982C275.679 389.697 226.792 430.665 206.392 443.517H69.2873C48.8871 430.665 0 389.697 0 312.982C0 229.841 61.7521 162.365 137.84 162.365C213.927 162.365 275.679 229.841 275.679 312.982ZM365.183 270.207L340.004 282.859L365.183 295.511L376.761 323.023L388.34 295.511L413.519 282.859L388.34 270.207L376.761 242.694L365.183 270.207ZM321.626 242.694L338.902 201.324L376.761 182.447L338.902 163.57L321.626 122.2L304.35 163.57L266.49 182.447L304.35 201.324L321.626 242.694Z" fill="#FFCC00"/>
<path d="M174.597 523.847C174.597 545.937 158.056 564.011 137.84 564.011C117.623 564.011 101.082 545.937 101.082 523.847H174.597ZM211.354 503.764V463.6H64.3251V503.764H211.354ZM275.679 312.982C275.679 389.697 226.792 430.665 206.392 443.517H69.2873C48.8871 430.665 0 389.697 0 312.982C0 229.841 61.7521 162.365 137.84 162.365C213.927 162.365 275.679 229.841 275.679 312.982ZM365.183 270.207L340.004 282.859L365.183 295.511L376.761 323.023L388.34 295.511L413.519 282.859L388.34 270.207L376.761 242.694L365.183 270.207ZM321.626 242.694L338.902 201.324L376.761 182.447L338.902 163.57L321.626 122.2L304.35 163.57L266.49 182.447L304.35 201.324L321.626 242.694Z" stroke="white"/>
</svg>
