<svg width="1023" height="1023" viewBox="0 0 1023 1023" fill="none" xmlns="http://www.w3.org/2000/svg">
<path d="M103.698 385.103H241.963C260.575 385.103 275.529 399.057 275.529 416.112V800.214C275.529 817.269 260.575 831.223 241.963 831.223H103.698C85.0866 831.223 70.1323 817.269 70.1323 800.214V416.112C70.1323 399.057 85.0866 385.103 103.698 385.103Z" fill="white" stroke="#007AFF" stroke-width="2"/>
<path d="M380.227 1H518.492C537.104 1 552.058 14.954 552.058 32.0086V800.214C552.058 817.268 537.104 831.222 518.492 831.222H380.227C361.615 831.222 346.661 817.268 346.661 800.214V32.0086C346.661 14.954 361.615 1 380.227 1Z" fill="white" stroke="#007AFF" stroke-width="2"/>
<path d="M656.754 193.051H795.018C813.63 193.051 828.584 207.005 828.584 224.06V800.214C828.584 817.268 813.63 831.222 795.018 831.222H656.754C638.142 831.222 623.188 817.268 623.188 800.214V224.06C623.188 207.005 638.142 193.051 656.754 193.051Z" fill="white" stroke="#007AFF" stroke-width="2"/>
<path d="M1 800.214C1 792.016 4.51621 784.136 10.8036 778.314C17.0936 772.489 25.6401 769.205 34.5661 769.205H864.153C873.079 769.205 881.626 772.489 887.916 778.314C894.203 784.136 897.72 792.016 897.72 800.214C897.72 808.412 894.203 816.291 887.916 822.113C881.626 827.938 873.079 831.222 864.153 831.222H34.5661C25.6401 831.222 17.0936 827.938 10.8036 822.113C4.51621 816.291 1 808.412 1 800.214Z" fill="white" stroke="#007AFF" stroke-width="2"/>
<path d="M103.698 401.603H241.963C252.679 401.603 259.029 409.341 259.029 416.112V800.214C259.029 806.985 252.679 814.723 241.963 814.723H103.698C92.982 814.723 86.6323 806.985 86.6323 800.214V416.112C86.6323 409.341 92.982 401.603 103.698 401.603Z" fill="white" stroke="#007AFF" stroke-width="35"/>
<path d="M380.227 17.5H518.492C529.208 17.5 535.558 25.2381 535.558 32.0086V800.214C535.558 806.984 529.208 814.722 518.492 814.722H380.227C369.511 814.722 363.161 806.984 363.161 800.214V32.0086C363.161 25.2381 369.511 17.5 380.227 17.5Z" fill="white" stroke="#007AFF" stroke-width="35"/>
<path d="M656.754 209.551H795.018C805.735 209.551 812.084 217.289 812.084 224.06V800.214C812.084 806.984 805.735 814.722 795.018 814.722H656.754C646.037 814.722 639.688 806.984 639.688 800.214V224.06C639.688 217.289 646.037 209.551 656.754 209.551Z" fill="white" stroke="#007AFF" stroke-width="35"/>
<path d="M17.5 800.214C17.5 796.819 18.9442 793.264 22.0144 790.42C25.1299 787.535 29.6243 785.705 34.5661 785.705H864.153C869.095 785.705 873.59 787.535 876.705 790.42C879.775 793.263 881.22 796.819 881.22 800.214C881.22 803.609 879.775 807.164 876.705 810.007C873.59 812.892 869.095 814.722 864.153 814.722H34.5661C29.6243 814.722 25.1299 812.892 22.0144 810.007C18.9442 807.164 17.5 803.608 17.5 800.214Z" fill="white" stroke="#007AFF" stroke-width="35"/>
<path d="M75.1942 705.868L208.602 537.467C261.458 470.686 287.888 437.334 323.578 436.599C359.345 435.863 387.214 468.097 442.955 532.642L463.309 556.196C519.049 620.741 546.919 652.975 582.685 652.239C618.376 651.504 644.805 618.152 697.662 551.371L831.07 382.97" stroke="#FFCC00" stroke-width="10" stroke-linecap="round"/>
<path d="M75.1942 705.868L208.602 537.467C261.458 470.686 287.888 437.334 323.578 436.599C359.345 435.863 387.214 468.097 442.955 532.642L463.309 556.196C519.049 620.741 546.919 652.975 582.685 652.239C618.376 651.504 644.805 618.152 697.662 551.371L831.07 382.97" stroke="#FFCC00" stroke-width="70" stroke-linecap="round"/>
<rect x="663.331" y="765.669" width="124.476" height="14.6614" fill="white" stroke="white" stroke-width="1.1"/>
<path d="M728.506 962.859C825.847 962.859 904.758 871.784 904.758 759.438C904.758 647.092 825.847 556.017 728.506 556.017C631.165 556.017 552.255 647.092 552.255 759.438C552.255 871.784 631.165 962.859 728.506 962.859Z" stroke="#007AFF" stroke-width="70" stroke-linecap="round" stroke-linejoin="round"/>
<path d="M874 908L992.743 992.606" stroke="#007AFF" stroke-width="60" stroke-linecap="round" stroke-linejoin="round"/>
<ellipse cx="728.5" cy="758" rx="160.5" ry="188" fill="white"/>
<path d="M826.19 723.292H802.219L795.556 704.983C788.71 686.16 772.37 674 753.924 674H703.074C684.632 674 668.288 686.16 661.437 704.983L654.775 723.292H630.807C627.68 723.292 625.386 726.522 626.147 729.854L628.549 740.416C629.082 742.766 631.003 744.417 633.21 744.417H641.245C635.868 749.579 632.405 757.083 632.405 765.542V786.667C632.405 793.761 634.871 800.165 638.811 805.12V828.917C638.811 836.693 644.549 843 651.624 843H664.436C671.511 843 677.249 836.693 677.249 828.917V814.833H779.749V828.917C779.749 836.693 785.486 843 792.561 843H805.374C812.449 843 818.186 836.693 818.186 828.917V805.12C822.126 800.169 824.593 793.766 824.593 786.667V765.542C824.593 757.083 821.129 749.579 815.756 744.417H823.792C825.998 744.417 827.92 742.766 828.452 740.416L830.855 729.854C831.611 726.522 829.317 723.292 826.19 723.292ZM685.228 715.445C688.147 707.426 695.214 702.167 703.074 702.167H753.924C761.783 702.167 768.85 707.426 771.769 715.445L779.749 737.375H677.249L685.228 715.445ZM664.436 786.579C656.749 786.579 651.624 780.963 651.624 772.539C651.624 764.116 656.749 758.5 664.436 758.5C672.124 758.5 683.655 771.135 683.655 779.559C683.655 787.983 672.124 786.579 664.436 786.579ZM792.561 786.579C784.874 786.579 773.342 787.983 773.342 779.559C773.342 771.135 784.874 758.5 792.561 758.5C800.249 758.5 805.374 764.116 805.374 772.539C805.374 780.963 800.249 786.579 792.561 786.579Z" fill="#FFCC00"/>
</svg>
