<svg width="100" height="100" viewBox="0 0 100 100" fill="none" xmlns="http://www.w3.org/2000/svg">
<rect width="100" height="100" rx="25" fill="#007AFF"/>
<path d="M91.1558 35.4165H81.0787L78.2779 27.8331C75.3997 20.0365 68.5307 14.9998 60.7764 14.9998H39.4002C31.6475 14.9998 24.7769 20.0365 21.897 27.8331L19.0962 35.4165H9.02075C7.7062 35.4165 6.74175 36.7545 7.06155 38.1344L8.07145 42.5094C8.29531 43.4829 9.10323 44.1665 10.0307 44.1665H13.4088C11.1483 46.3048 9.69234 49.4128 9.69234 52.9165V61.6665C9.69234 64.605 10.7292 67.2574 12.3854 69.31V79.1665C12.3854 82.3876 14.7974 84.9998 17.7715 84.9998H23.1576C26.1318 84.9998 28.5438 82.3876 28.5438 79.1665V73.3331H71.6328V79.1665C71.6328 82.3876 74.0448 84.9998 77.0189 84.9998H82.405C85.3792 84.9998 87.7911 82.3876 87.7911 79.1665V69.31C89.4474 67.2592 90.4842 64.6068 90.4842 61.6665V52.9165C90.4842 49.4128 89.0283 46.3048 86.7695 44.1665H90.1476C91.075 44.1665 91.8829 43.4829 92.1068 42.5094L93.1167 38.1344C93.4348 36.7545 92.4703 35.4165 91.1558 35.4165ZM31.8983 32.1662C33.1253 28.8449 36.0961 26.6665 39.4002 26.6665H60.7764C64.0804 26.6665 67.0512 28.8449 68.2782 32.1662L71.6328 41.2498H28.5438L31.8983 32.1662ZM23.1576 61.63C19.926 61.63 17.7715 59.304 17.7715 55.8149C17.7715 52.3258 19.926 49.9998 23.1576 49.9998C26.3893 49.9998 31.2368 55.2334 31.2368 58.7225C31.2368 62.2115 26.3893 61.63 23.1576 61.63ZM77.0189 61.63C73.7872 61.63 68.9397 62.2115 68.9397 58.7225C68.9397 55.2334 73.7872 49.9998 77.0189 49.9998C80.2506 49.9998 82.405 52.3258 82.405 55.8149C82.405 59.304 80.2506 61.63 77.0189 61.63Z" fill="white"/>
</svg>
