<svg width="1000" height="1000" viewBox="0 0 1000 1000" fill="none" xmlns="http://www.w3.org/2000/svg">
<rect width="1000" height="1000" rx="100" fill="#007AFF"/>
<path d="M852.836 377.789H765.084L740.694 311.752C715.631 243.859 655.815 199.998 588.289 199.998H402.144C334.633 199.998 274.802 243.859 249.724 311.752L225.335 377.789H137.597C126.15 377.789 117.751 389.44 120.536 401.457L129.33 439.555C131.28 448.032 138.315 453.984 146.391 453.984H175.808C156.124 472.605 143.445 499.67 143.445 530.18V606.376C143.445 631.965 152.474 655.062 166.897 672.936V758.767C166.897 786.817 187.9 809.565 213.799 809.565H260.702C286.601 809.565 307.605 786.817 307.605 758.767V707.97H682.828V758.767C682.828 786.817 703.832 809.565 729.731 809.565H776.634C802.533 809.565 823.536 786.817 823.536 758.767V672.936C837.959 655.078 846.988 631.981 846.988 606.376V530.18C846.988 499.67 834.31 472.605 814.64 453.984H844.057C852.133 453.984 859.168 448.032 861.117 439.555L869.912 401.457C872.682 389.44 864.283 377.789 852.836 377.789ZM336.817 349.485C347.502 320.562 373.372 301.593 402.144 301.593H588.289C617.061 301.593 642.931 320.562 653.616 349.485L682.828 428.586H307.605L336.817 349.485ZM260.702 606.058C232.561 606.058 213.799 585.803 213.799 555.42C213.799 525.037 232.561 504.781 260.702 504.781C288.844 504.781 331.057 550.356 331.057 580.739C331.057 611.122 288.844 606.058 260.702 606.058ZM729.731 606.058C701.589 606.058 659.377 611.122 659.377 580.739C659.377 550.356 701.589 504.781 729.731 504.781C757.873 504.781 776.634 525.037 776.634 555.42C776.634 585.803 757.873 606.058 729.731 606.058Z" fill="white" fill-opacity="0.95"/>
</svg>
